<svg xmlns="http://www.w3.org/2000/svg" height="24px" viewBox="0 -960 960 960" width="24px" fill="#000000"><path d="M508.5-291.5Q520-303 520-320t-11.5-28.5Q497-360 480-360t-28.5 11.5Q440-337 440-320t11.5 28.5Q463-280 480-280t28.5-11.5ZM440-440h80v-240h-80v240ZM200-120q-33 0-56.5-23.5T120-200v-560q0-33 23.5-56.5T200-840h168q13-36 43.5-58t68.5-22q38 0 68.5 22t43.5 58h168q33 0 56.5 23.5T840-760v560q0 33-23.5 56.5T760-120H200Zm0-80h560v-560H200v560Zm301.5-598.5Q510-807 510-820t-8.5-21.5Q493-850 480-850t-21.5 8.5Q450-833 450-820t8.5 21.5Q467-790 480-790t21.5-8.5ZM200-200v-560 560Z"/></svg>